<mxfile host="app.diagrams.net" agent="Mozilla/5.0 (Windows NT 10.0; Win64; x64) AppleWebKit/537.36 (KHTML, like Gecko) Chrome/128.0.0.0 Safari/537.36" version="24.7.17">
  <diagram name="Page-1" id="Se-zp7QO1YlVWWPvFGLE">
    <mxGraphModel dx="1434" dy="892" grid="1" gridSize="10" guides="1" tooltips="1" connect="1" arrows="1" fold="1" page="1" pageScale="1" pageWidth="827" pageHeight="1169" math="0" shadow="0">
      <root>
        <mxCell id="0" />
        <mxCell id="1" parent="0" />
        <mxCell id="1P4_ycyfB6l-V7KithN3-9" value="&lt;h1 style=&quot;margin: 0px auto 12px; padding: 0px; break-after: avoid; font-variant-numeric: normal; font-variant-east-asian: normal; font-variant-alternates: normal; font-size-adjust: none; font-kerning: auto; font-optical-sizing: auto; font-feature-settings: normal; font-variation-settings: normal; font-variant-position: normal; font-stretch: normal; font-size: 32px; line-height: 40px; font-family: BlinkMacSystemFont, -apple-system, &amp;quot;Segoe UI&amp;quot;, Roboto, Helvetica, Arial, sans-serif; color: rgb(49, 49, 48); background-color: rgb(255, 255, 255);&quot; class=&quot;main__header-title&quot;&gt;&amp;nbsp; &amp;nbsp; &amp;nbsp; &amp;nbsp; &amp;nbsp; &amp;nbsp; &amp;nbsp; &amp;nbsp; &amp;nbsp; &amp;nbsp; &amp;nbsp; &amp;nbsp; &amp;nbsp; &amp;nbsp; &amp;nbsp; &amp;nbsp; Variables&lt;/h1&gt;&lt;p&gt;&lt;span style=&quot;color: rgb(49, 49, 48); font-family: BlinkMacSystemFont, -apple-system, &amp;quot;Segoe UI&amp;quot;, Roboto, Helvetica, Arial, sans-serif; font-size: 16px; background-color: rgb(255, 255, 255);&quot;&gt;A&amp;nbsp;&lt;/span&gt;&lt;a style=&quot;text-decoration-line: none; font-family: BlinkMacSystemFont, -apple-system, &amp;quot;Segoe UI&amp;quot;, Roboto, Helvetica, Arial, sans-serif; font-size: 16px; background-color: rgb(255, 255, 255);&quot; href=&quot;https://en.wikipedia.org/wiki/Variable_(computer_science)&quot;&gt;variable&lt;/a&gt;&lt;span style=&quot;color: rgb(49, 49, 48); font-family: BlinkMacSystemFont, -apple-system, &amp;quot;Segoe UI&amp;quot;, Roboto, Helvetica, Arial, sans-serif; font-size: 16px; background-color: rgb(255, 255, 255);&quot;&gt;&amp;nbsp;is a “named storage” for data.&lt;br&gt;&lt;/span&gt;&lt;span style=&quot;color: rgb(49, 49, 48); font-family: BlinkMacSystemFont, -apple-system, &amp;quot;Segoe UI&amp;quot;, Roboto, Helvetica, Arial, sans-serif; font-size: 16px; background-color: rgb(255, 255, 255);&quot;&gt;To create a variable in JavaScript, use the&amp;nbsp;&lt;/span&gt;&lt;code style=&quot;font-family: Consolas, &amp;quot;Lucida Console&amp;quot;, Menlo, Monaco, monospace; padding: 2px 4px; background: var(--prismBlockBg); border-radius: 2px; color: var(--foregroundAlt); font-size: 16px;&quot;&gt;let&lt;/code&gt;&lt;span style=&quot;color: rgb(49, 49, 48); font-family: BlinkMacSystemFont, -apple-system, &amp;quot;Segoe UI&amp;quot;, Roboto, Helvetica, Arial, sans-serif; font-size: 16px; background-color: rgb(255, 255, 255);&quot;&gt;&amp;nbsp;keyword.&lt;br&gt;&lt;/span&gt;&lt;/p&gt;&lt;p style=&quot;margin: 0px 0px 12px; padding: 0px; color: rgb(49, 49, 48); font-family: BlinkMacSystemFont, -apple-system, &amp;quot;Segoe UI&amp;quot;, Roboto, Helvetica, Arial, sans-serif; font-size: 16px; background-color: rgb(255, 255, 255);&quot;&gt;A variable should be declared only once.&lt;/p&gt;&lt;p style=&quot;margin: 0px 0px 12px; padding: 0px; color: rgb(49, 49, 48); font-family: BlinkMacSystemFont, -apple-system, &amp;quot;Segoe UI&amp;quot;, Roboto, Helvetica, Arial, sans-serif; font-size: 16px; background-color: rgb(255, 255, 255);&quot;&gt;A repeated declaration of the same variable is an error:&lt;br&gt;&lt;code style=&quot;font-family: Consolas, &amp;quot;Lucida Console&amp;quot;, Menlo, Monaco, monospace; padding: 0px; background-image: inherit; background-position: inherit; background-size: inherit; background-repeat: inherit; background-attachment: inherit; background-origin: inherit; background-clip: inherit; background-color: rgb(247, 244, 243); border-radius: 2px; color: var(--prismTokenKeyword); white-space: pre;&quot; class=&quot;token keyword&quot;&gt;let&lt;/code&gt;&lt;span style=&quot;font-family: Consolas, &amp;quot;Lucida Console&amp;quot;, Menlo, Monaco, monospace; white-space: pre; background-color: rgb(247, 244, 243);&quot;&gt; message &lt;/span&gt;&lt;code style=&quot;font-family: Consolas, &amp;quot;Lucida Console&amp;quot;, Menlo, Monaco, monospace; padding: 0px; background-image: inherit; background-position: inherit; background-size: inherit; background-repeat: inherit; background-attachment: inherit; background-origin: inherit; background-clip: inherit; background-color: rgb(247, 244, 243); border-radius: 2px; color: var(--prismTokenOperator); white-space: pre;&quot; class=&quot;token operator&quot;&gt;=&lt;/code&gt;&lt;span style=&quot;font-family: Consolas, &amp;quot;Lucida Console&amp;quot;, Menlo, Monaco, monospace; white-space: pre; background-color: rgb(247, 244, 243);&quot;&gt; &lt;/span&gt;&lt;code style=&quot;font-family: Consolas, &amp;quot;Lucida Console&amp;quot;, Menlo, Monaco, monospace; padding: 0px; background-image: inherit; background-position: inherit; background-size: inherit; background-repeat: inherit; background-attachment: inherit; background-origin: inherit; background-clip: inherit; background-color: rgb(247, 244, 243); border-radius: 2px; color: var(--prismTokenSymbolsAlt); white-space: pre;&quot; class=&quot;token string&quot;&gt;&quot;This&quot;&lt;/code&gt;&lt;code style=&quot;font-family: Consolas, &amp;quot;Lucida Console&amp;quot;, Menlo, Monaco, monospace; padding: 0px; background-image: inherit; background-position: inherit; background-size: inherit; background-repeat: inherit; background-attachment: inherit; background-origin: inherit; background-clip: inherit; background-color: rgb(247, 244, 243); border-radius: 2px; color: var(--prismTokenPunctuation); white-space: pre;&quot; class=&quot;token punctuation&quot;&gt;;&lt;/code&gt;&lt;span style=&quot;font-family: Consolas, &amp;quot;Lucida Console&amp;quot;, Menlo, Monaco, monospace; white-space: pre; background-color: rgb(247, 244, 243);&quot;&gt;&lt;br&gt;&lt;br&gt;&lt;/span&gt;&lt;code style=&quot;font-family: Consolas, &amp;quot;Lucida Console&amp;quot;, Menlo, Monaco, monospace; padding: 0px; background-image: inherit; background-position: inherit; background-size: inherit; background-repeat: inherit; background-attachment: inherit; background-origin: inherit; background-clip: inherit; background-color: rgb(247, 244, 243); border-radius: 2px; color: var(--prismTokenComment); white-space: pre;&quot; class=&quot;token comment&quot;&gt;// repeated &#39;let&#39; leads to an error&lt;/code&gt;&lt;span style=&quot;font-family: Consolas, &amp;quot;Lucida Console&amp;quot;, Menlo, Monaco, monospace; white-space: pre; background-color: rgb(247, 244, 243);&quot;&gt;&lt;br&gt;&lt;/span&gt;&lt;code style=&quot;font-family: Consolas, &amp;quot;Lucida Console&amp;quot;, Menlo, Monaco, monospace; padding: 0px; background-image: inherit; background-position: inherit; background-size: inherit; background-repeat: inherit; background-attachment: inherit; background-origin: inherit; background-clip: inherit; background-color: rgb(247, 244, 243); border-radius: 2px; color: var(--prismTokenKeyword); white-space: pre;&quot; class=&quot;token keyword&quot;&gt;let&lt;/code&gt;&lt;span style=&quot;font-family: Consolas, &amp;quot;Lucida Console&amp;quot;, Menlo, Monaco, monospace; white-space: pre; background-color: rgb(247, 244, 243);&quot;&gt; message &lt;/span&gt;&lt;code style=&quot;font-family: Consolas, &amp;quot;Lucida Console&amp;quot;, Menlo, Monaco, monospace; padding: 0px; background-image: inherit; background-position: inherit; background-size: inherit; background-repeat: inherit; background-attachment: inherit; background-origin: inherit; background-clip: inherit; background-color: rgb(247, 244, 243); border-radius: 2px; color: var(--prismTokenOperator); white-space: pre;&quot; class=&quot;token operator&quot;&gt;=&lt;/code&gt;&lt;span style=&quot;font-family: Consolas, &amp;quot;Lucida Console&amp;quot;, Menlo, Monaco, monospace; white-space: pre; background-color: rgb(247, 244, 243);&quot;&gt; &lt;/span&gt;&lt;code style=&quot;font-family: Consolas, &amp;quot;Lucida Console&amp;quot;, Menlo, Monaco, monospace; padding: 0px; background-image: inherit; background-position: inherit; background-size: inherit; background-repeat: inherit; background-attachment: inherit; background-origin: inherit; background-clip: inherit; background-color: rgb(247, 244, 243); border-radius: 2px; color: var(--prismTokenSymbolsAlt); white-space: pre;&quot; class=&quot;token string&quot;&gt;&quot;That&quot;&lt;/code&gt;&lt;code style=&quot;font-family: Consolas, &amp;quot;Lucida Console&amp;quot;, Menlo, Monaco, monospace; padding: 0px; background-image: inherit; background-position: inherit; background-size: inherit; background-repeat: inherit; background-attachment: inherit; background-origin: inherit; background-clip: inherit; background-color: rgb(247, 244, 243); border-radius: 2px; color: var(--prismTokenPunctuation); white-space: pre;&quot; class=&quot;token punctuation&quot;&gt;;&lt;/code&gt;&lt;span style=&quot;font-family: Consolas, &amp;quot;Lucida Console&amp;quot;, Menlo, Monaco, monospace; white-space: pre; background-color: rgb(247, 244, 243);&quot;&gt; &lt;/span&gt;&lt;code style=&quot;font-family: Consolas, &amp;quot;Lucida Console&amp;quot;, Menlo, Monaco, monospace; padding: 0px; background-image: inherit; background-position: inherit; background-size: inherit; background-repeat: inherit; background-attachment: inherit; background-origin: inherit; background-clip: inherit; background-color: rgb(247, 244, 243); border-radius: 2px; color: var(--prismTokenComment); white-space: pre;&quot; class=&quot;token comment&quot;&gt;// SyntaxError: &#39;message&#39; has already been declared&lt;/code&gt;&lt;br&gt;&lt;/p&gt;&lt;p style=&quot;margin: 0px 0px 12px; padding: 0px; color: rgb(49, 49, 48); font-family: BlinkMacSystemFont, -apple-system, &amp;quot;Segoe UI&amp;quot;, Roboto, Helvetica, Arial, sans-serif; font-size: 16px; background-color: rgb(255, 255, 255);&quot;&gt;&lt;code style=&quot;font-family: Consolas, &amp;quot;Lucida Console&amp;quot;, Menlo, Monaco, monospace; padding: 0px; background-image: inherit; background-position: inherit; background-size: inherit; background-repeat: inherit; background-attachment: inherit; background-origin: inherit; background-clip: inherit; background-color: rgb(247, 244, 243); border-radius: 2px; color: var(--prismTokenComment); white-space: pre;&quot; class=&quot;token comment&quot;&gt;&lt;span style=&quot;font-family: BlinkMacSystemFont, -apple-system, &amp;quot;Segoe UI&amp;quot;, Roboto, Helvetica, Arial, sans-serif; white-space: normal; background-color: rgb(255, 255, 255);&quot;&gt;What’s interesting – the dollar sign&amp;nbsp;&lt;/span&gt;&lt;code style=&quot;font-family: Consolas, &amp;quot;Lucida Console&amp;quot;, Menlo, Monaco, monospace; padding: 2px 4px; background: var(--prismBlockBg); border-radius: 2px; color: var(--foregroundAlt); white-space: normal;&quot;&gt;&#39;$&#39;&lt;/code&gt;&lt;span style=&quot;font-family: BlinkMacSystemFont, -apple-system, &amp;quot;Segoe UI&amp;quot;, Roboto, Helvetica, Arial, sans-serif; white-space: normal; background-color: rgb(255, 255, 255);&quot;&gt;&amp;nbsp;and the underscore&amp;nbsp;&lt;/span&gt;&lt;code style=&quot;font-family: Consolas, &amp;quot;Lucida Console&amp;quot;, Menlo, Monaco, monospace; padding: 2px 4px; background: var(--prismBlockBg); border-radius: 2px; color: var(--foregroundAlt); white-space: normal;&quot;&gt;&#39;_&#39;&lt;/code&gt;&lt;span style=&quot;font-family: BlinkMacSystemFont, -apple-system, &amp;quot;Segoe UI&amp;quot;, Roboto, Helvetica, Arial, sans-serif; white-space: normal; background-color: rgb(255, 255, 255);&quot;&gt;&amp;nbsp;can also be used in names.&lt;br&gt;&lt;/span&gt;&lt;code style=&quot;font-family: Consolas, &amp;quot;Lucida Console&amp;quot;, Menlo, Monaco, monospace; padding: 0px; background-image: inherit; background-position: inherit; background-size: inherit; background-repeat: inherit; background-attachment: inherit; background-origin: inherit; background-clip: inherit; border-radius: 2px; color: var(--prismTokenKeyword);&quot; class=&quot;token keyword&quot;&gt;let&lt;/code&gt; $ &lt;code style=&quot;font-family: Consolas, &amp;quot;Lucida Console&amp;quot;, Menlo, Monaco, monospace; padding: 0px; background-image: inherit; background-position: inherit; background-size: inherit; background-repeat: inherit; background-attachment: inherit; background-origin: inherit; background-clip: inherit; border-radius: 2px; color: var(--prismTokenOperator);&quot; class=&quot;token operator&quot;&gt;=&lt;/code&gt; &lt;code style=&quot;font-family: Consolas, &amp;quot;Lucida Console&amp;quot;, Menlo, Monaco, monospace; padding: 0px; background-image: inherit; background-position: inherit; background-size: inherit; background-repeat: inherit; background-attachment: inherit; background-origin: inherit; background-clip: inherit; border-radius: 2px; color: var(--prismTokenSymbols);&quot; class=&quot;token number&quot;&gt;1&lt;/code&gt;&lt;code style=&quot;font-family: Consolas, &amp;quot;Lucida Console&amp;quot;, Menlo, Monaco, monospace; padding: 0px; background-image: inherit; background-position: inherit; background-size: inherit; background-repeat: inherit; background-attachment: inherit; background-origin: inherit; background-clip: inherit; border-radius: 2px; color: var(--prismTokenPunctuation);&quot; class=&quot;token punctuation&quot;&gt;;&lt;/code&gt; &lt;code style=&quot;font-family: Consolas, &amp;quot;Lucida Console&amp;quot;, Menlo, Monaco, monospace; padding: 0px; background-image: inherit; background-position: inherit; background-size: inherit; background-repeat: inherit; background-attachment: inherit; background-origin: inherit; background-clip: inherit; border-radius: 2px; color: var(--prismTokenComment);&quot; class=&quot;token comment&quot;&gt;// declared a variable with the name &quot;$&quot;&lt;/code&gt;&lt;br&gt;&lt;code style=&quot;font-family: Consolas, &amp;quot;Lucida Console&amp;quot;, Menlo, Monaco, monospace; padding: 0px; background-image: inherit; background-position: inherit; background-size: inherit; background-repeat: inherit; background-attachment: inherit; background-origin: inherit; background-clip: inherit; border-radius: 2px; color: var(--prismTokenKeyword);&quot; class=&quot;token keyword&quot;&gt;let&lt;/code&gt; _ &lt;code style=&quot;font-family: Consolas, &amp;quot;Lucida Console&amp;quot;, Menlo, Monaco, monospace; padding: 0px; background-image: inherit; background-position: inherit; background-size: inherit; background-repeat: inherit; background-attachment: inherit; background-origin: inherit; background-clip: inherit; border-radius: 2px; color: var(--prismTokenOperator);&quot; class=&quot;token operator&quot;&gt;=&lt;/code&gt; &lt;code style=&quot;font-family: Consolas, &amp;quot;Lucida Console&amp;quot;, Menlo, Monaco, monospace; padding: 0px; background-image: inherit; background-position: inherit; background-size: inherit; background-repeat: inherit; background-attachment: inherit; background-origin: inherit; background-clip: inherit; border-radius: 2px; color: var(--prismTokenSymbols);&quot; class=&quot;token number&quot;&gt;2&lt;/code&gt;&lt;code style=&quot;font-family: Consolas, &amp;quot;Lucida Console&amp;quot;, Menlo, Monaco, monospace; padding: 0px; background-image: inherit; background-position: inherit; background-size: inherit; background-repeat: inherit; background-attachment: inherit; background-origin: inherit; background-clip: inherit; border-radius: 2px; color: var(--prismTokenPunctuation);&quot; class=&quot;token punctuation&quot;&gt;;&lt;/code&gt; &lt;code style=&quot;font-family: Consolas, &amp;quot;Lucida Console&amp;quot;, Menlo, Monaco, monospace; padding: 0px; background-image: inherit; background-position: inherit; background-size: inherit; background-repeat: inherit; background-attachment: inherit; background-origin: inherit; background-clip: inherit; border-radius: 2px; color: var(--prismTokenComment);&quot; class=&quot;token comment&quot;&gt;// and now a variable with the name &quot;_&quot;&lt;/code&gt;&lt;br&gt;&lt;br&gt;&lt;code style=&quot;font-family: Consolas, &amp;quot;Lucida Console&amp;quot;, Menlo, Monaco, monospace; padding: 0px; background-image: inherit; background-position: inherit; background-size: inherit; background-repeat: inherit; background-attachment: inherit; background-origin: inherit; background-clip: inherit; border-radius: 2px; color: var(--prismTokenFunctionAndClassname);&quot; class=&quot;token function&quot;&gt;alert&lt;/code&gt;&lt;code style=&quot;font-family: Consolas, &amp;quot;Lucida Console&amp;quot;, Menlo, Monaco, monospace; padding: 0px; background-image: inherit; background-position: inherit; background-size: inherit; background-repeat: inherit; background-attachment: inherit; background-origin: inherit; background-clip: inherit; border-radius: 2px; color: var(--prismTokenPunctuation);&quot; class=&quot;token punctuation&quot;&gt;(&lt;/code&gt;$ &lt;code style=&quot;font-family: Consolas, &amp;quot;Lucida Console&amp;quot;, Menlo, Monaco, monospace; padding: 0px; background-image: inherit; background-position: inherit; background-size: inherit; background-repeat: inherit; background-attachment: inherit; background-origin: inherit; background-clip: inherit; border-radius: 2px; color: var(--prismTokenOperator);&quot; class=&quot;token operator&quot;&gt;+&lt;/code&gt; _&lt;code style=&quot;font-family: Consolas, &amp;quot;Lucida Console&amp;quot;, Menlo, Monaco, monospace; padding: 0px; background-image: inherit; background-position: inherit; background-size: inherit; background-repeat: inherit; background-attachment: inherit; background-origin: inherit; background-clip: inherit; border-radius: 2px; color: var(--prismTokenPunctuation);&quot; class=&quot;token punctuation&quot;&gt;)&lt;/code&gt;&lt;code style=&quot;font-family: Consolas, &amp;quot;Lucida Console&amp;quot;, Menlo, Monaco, monospace; padding: 0px; background-image: inherit; background-position: inherit; background-size: inherit; background-repeat: inherit; background-attachment: inherit; background-origin: inherit; background-clip: inherit; border-radius: 2px; color: var(--prismTokenPunctuation);&quot; class=&quot;token punctuation&quot;&gt;;&lt;/code&gt; &lt;code style=&quot;font-family: Consolas, &amp;quot;Lucida Console&amp;quot;, Menlo, Monaco, monospace; padding: 0px; background-image: inherit; background-position: inherit; background-size: inherit; background-repeat: inherit; background-attachment: inherit; background-origin: inherit; background-clip: inherit; border-radius: 2px; color: var(--prismTokenComment);&quot; class=&quot;token comment&quot;&gt;// 3&lt;/code&gt;&lt;/code&gt;&lt;/p&gt;&lt;p style=&quot;margin: 0px 0px 12px; padding: 0px; color: rgb(49, 49, 48); font-family: BlinkMacSystemFont, -apple-system, &amp;quot;Segoe UI&amp;quot;, Roboto, Helvetica, Arial, sans-serif; font-size: 16px; background-color: rgb(255, 255, 255);&quot;&gt;&lt;span style=&quot;font-weight: 700;&quot;&gt;Case matters&lt;/span&gt;&lt;/p&gt;&lt;p style=&quot;margin: 0px 0px 12px; padding: 0px; color: rgb(49, 49, 48); font-family: BlinkMacSystemFont, -apple-system, &amp;quot;Segoe UI&amp;quot;, Roboto, Helvetica, Arial, sans-serif; font-size: 16px; background-color: rgb(255, 255, 255);&quot;&gt;Variables named&amp;nbsp;&lt;code style=&quot;background: var(--prismBlockBg); color: var(--foregroundAlt); font-family: Consolas, &amp;quot;Lucida Console&amp;quot;, Menlo, Monaco, monospace; padding: 2px 4px; border-radius: 2px;&quot;&gt;apple&lt;/code&gt;&amp;nbsp;and&amp;nbsp;&lt;code style=&quot;background: var(--prismBlockBg); color: var(--foregroundAlt); font-family: Consolas, &amp;quot;Lucida Console&amp;quot;, Menlo, Monaco, monospace; padding: 2px 4px; border-radius: 2px;&quot;&gt;APPLE&lt;/code&gt;&amp;nbsp;are two different variables.&amp;nbsp; &amp;nbsp; &amp;nbsp; &amp;nbsp; &amp;nbsp; &amp;nbsp; &amp;nbsp; &amp;nbsp; &amp;nbsp; &amp;nbsp; &amp;nbsp; &amp;nbsp; &amp;nbsp; &amp;nbsp; &amp;nbsp; &amp;nbsp; &amp;nbsp; &amp;nbsp; &amp;nbsp; &amp;nbsp; &amp;nbsp;&lt;/p&gt;&lt;p style=&quot;margin: 0px 0px 12px; padding: 0px; color: rgb(49, 49, 48); font-family: BlinkMacSystemFont, -apple-system, &amp;quot;Segoe UI&amp;quot;, Roboto, Helvetica, Arial, sans-serif; font-size: 16px; background-color: rgb(255, 255, 255);&quot;&gt;&lt;a style=&quot;font-style: inherit; font-variant: inherit; font-stretch: inherit; font-size: inherit; line-height: inherit; font-family: inherit; font-optical-sizing: inherit; font-size-adjust: inherit; font-kerning: inherit; font-feature-settings: inherit; font-variation-settings: inherit; color: rgb(102, 102, 102); outline: 0px;&quot; href=&quot;https://javascript.info/variables#constants&quot; name=&quot;constants&quot; class=&quot;main__anchor&quot;&gt;&lt;b&gt;Constants&lt;/b&gt;&lt;/a&gt;&lt;/p&gt;&lt;p style=&quot;margin: 0px 0px 12px; padding: 0px; color: rgb(49, 49, 48); font-family: BlinkMacSystemFont, -apple-system, &amp;quot;Segoe UI&amp;quot;, Roboto, Helvetica, Arial, sans-serif; font-size: 16px; background-color: rgb(255, 255, 255);&quot;&gt;To declare a constant (unchanging) variable, use&amp;nbsp;&lt;code style=&quot;background: var(--prismBlockBg); color: var(--foregroundAlt); font-family: Consolas, &amp;quot;Lucida Console&amp;quot;, Menlo, Monaco, monospace; padding: 2px 4px; border-radius: 2px;&quot;&gt;const&lt;/code&gt;&amp;nbsp;instead of&amp;nbsp;&lt;code style=&quot;background: var(--prismBlockBg); color: var(--foregroundAlt); font-family: Consolas, &amp;quot;Lucida Console&amp;quot;, Menlo, Monaco, monospace; padding: 2px 4px; border-radius: 2px;&quot;&gt;let&lt;/code&gt;:&lt;br&gt;&lt;/p&gt;&lt;p style=&quot;margin: 0px 0px 12px; padding: 0px; color: rgb(49, 49, 48); font-family: BlinkMacSystemFont, -apple-system, &amp;quot;Segoe UI&amp;quot;, Roboto, Helvetica, Arial, sans-serif; font-size: 16px; background-color: rgb(255, 255, 255);&quot;&gt;Variables declared using&amp;nbsp;&lt;code style=&quot;font-family: Consolas, &amp;quot;Lucida Console&amp;quot;, Menlo, Monaco, monospace; padding: 2px 4px; background: var(--prismBlockBg); border-radius: 2px; color: var(--foregroundAlt);&quot;&gt;const&lt;/code&gt;&amp;nbsp;are called “constants”. They cannot be reassigned. An attempt to do so would cause an error:&lt;/p&gt;&lt;p style=&quot;margin: 0px 0px 12px; padding: 0px; color: rgb(49, 49, 48); font-family: BlinkMacSystemFont, -apple-system, &amp;quot;Segoe UI&amp;quot;, Roboto, Helvetica, Arial, sans-serif; font-size: 16px; background-color: rgb(255, 255, 255);&quot;&gt;&lt;code style=&quot;font-family: Consolas, &amp;quot;Lucida Console&amp;quot;, Menlo, Monaco, monospace; padding: 0px; background-image: inherit; background-position: inherit; background-size: inherit; background-repeat: inherit; background-attachment: inherit; background-origin: inherit; background-clip: inherit; background-color: rgb(247, 244, 243); border-radius: 2px; color: var(--prismTokenKeyword); white-space: pre;&quot; class=&quot;token keyword&quot;&gt;const&lt;/code&gt;&lt;span style=&quot;font-family: Consolas, &amp;quot;Lucida Console&amp;quot;, Menlo, Monaco, monospace; white-space: pre; background-color: rgb(247, 244, 243);&quot;&gt; myBirthday &lt;/span&gt;&lt;code style=&quot;font-family: Consolas, &amp;quot;Lucida Console&amp;quot;, Menlo, Monaco, monospace; padding: 0px; background-image: inherit; background-position: inherit; background-size: inherit; background-repeat: inherit; background-attachment: inherit; background-origin: inherit; background-clip: inherit; background-color: rgb(247, 244, 243); border-radius: 2px; color: var(--prismTokenOperator); white-space: pre;&quot; class=&quot;token operator&quot;&gt;=&lt;/code&gt;&lt;span style=&quot;font-family: Consolas, &amp;quot;Lucida Console&amp;quot;, Menlo, Monaco, monospace; white-space: pre; background-color: rgb(247, 244, 243);&quot;&gt; &lt;/span&gt;&lt;code style=&quot;font-family: Consolas, &amp;quot;Lucida Console&amp;quot;, Menlo, Monaco, monospace; padding: 0px; background-image: inherit; background-position: inherit; background-size: inherit; background-repeat: inherit; background-attachment: inherit; background-origin: inherit; background-clip: inherit; background-color: rgb(247, 244, 243); border-radius: 2px; color: var(--prismTokenSymbolsAlt); white-space: pre;&quot; class=&quot;token string&quot;&gt;&#39;18.04.1982&#39;&lt;/code&gt;&lt;code style=&quot;font-family: Consolas, &amp;quot;Lucida Console&amp;quot;, Menlo, Monaco, monospace; padding: 0px; background-image: inherit; background-position: inherit; background-size: inherit; background-repeat: inherit; background-attachment: inherit; background-origin: inherit; background-clip: inherit; background-color: rgb(247, 244, 243); border-radius: 2px; color: var(--prismTokenPunctuation); white-space: pre;&quot; class=&quot;token punctuation&quot;&gt;;&lt;br/&gt;&lt;/code&gt;&lt;span style=&quot;font-family: Consolas, &amp;quot;Lucida Console&amp;quot;, Menlo, Monaco, monospace; white-space: pre; background-color: rgb(247, 244, 243);&quot;&gt;myBirthday &lt;/span&gt;&lt;code style=&quot;font-family: Consolas, &amp;quot;Lucida Console&amp;quot;, Menlo, Monaco, monospace; padding: 0px; background-image: inherit; background-position: inherit; background-size: inherit; background-repeat: inherit; background-attachment: inherit; background-origin: inherit; background-clip: inherit; background-color: rgb(247, 244, 243); border-radius: 2px; color: var(--prismTokenOperator); white-space: pre;&quot; class=&quot;token operator&quot;&gt;=&lt;/code&gt;&lt;span style=&quot;font-family: Consolas, &amp;quot;Lucida Console&amp;quot;, Menlo, Monaco, monospace; white-space: pre; background-color: rgb(247, 244, 243);&quot;&gt; &lt;/span&gt;&lt;code style=&quot;font-family: Consolas, &amp;quot;Lucida Console&amp;quot;, Menlo, Monaco, monospace; padding: 0px; background-image: inherit; background-position: inherit; background-size: inherit; background-repeat: inherit; background-attachment: inherit; background-origin: inherit; background-clip: inherit; background-color: rgb(247, 244, 243); border-radius: 2px; color: var(--prismTokenSymbolsAlt); white-space: pre;&quot; class=&quot;token string&quot;&gt;&#39;01.01.2001&#39;&lt;/code&gt;&lt;code style=&quot;font-family: Consolas, &amp;quot;Lucida Console&amp;quot;, Menlo, Monaco, monospace; padding: 0px; background-image: inherit; background-position: inherit; background-size: inherit; background-repeat: inherit; background-attachment: inherit; background-origin: inherit; background-clip: inherit; background-color: rgb(247, 244, 243); border-radius: 2px; color: var(--prismTokenPunctuation); white-space: pre;&quot; class=&quot;token punctuation&quot;&gt;;&lt;/code&gt;&lt;span style=&quot;font-family: Consolas, &amp;quot;Lucida Console&amp;quot;, Menlo, Monaco, monospace; white-space: pre; background-color: rgb(247, 244, 243);&quot;&gt; &lt;/span&gt;&lt;code style=&quot;font-family: Consolas, &amp;quot;Lucida Console&amp;quot;, Menlo, Monaco, monospace; padding: 0px; background-image: inherit; background-position: inherit; background-size: inherit; background-repeat: inherit; background-attachment: inherit; background-origin: inherit; background-clip: inherit; background-color: rgb(247, 244, 243); border-radius: 2px; color: var(--prismTokenComment); white-space: pre;&quot; class=&quot;token comment&quot;&gt;// error, can&#39;t reassign the constant!&lt;/code&gt;&lt;br&gt;&lt;/p&gt;&lt;p style=&quot;margin: 0px 0px 12px; padding: 0px; color: rgb(49, 49, 48); font-family: BlinkMacSystemFont, -apple-system, &amp;quot;Segoe UI&amp;quot;, Roboto, Helvetica, Arial, sans-serif; font-size: 16px; background-color: rgb(255, 255, 255);&quot;&gt;&lt;code style=&quot;font-family: Consolas, &amp;quot;Lucida Console&amp;quot;, Menlo, Monaco, monospace; padding: 0px; background-image: inherit; background-position: inherit; background-size: inherit; background-repeat: inherit; background-attachment: inherit; background-origin: inherit; background-clip: inherit; background-color: rgb(247, 244, 243); border-radius: 2px; color: var(--prismTokenComment); white-space: pre;&quot; class=&quot;token comment&quot;&gt;&lt;br&gt;&lt;/code&gt;&lt;/p&gt;&lt;p style=&quot;margin: 0px 0px 12px; padding: 0px; break-before: avoid; color: rgb(49, 49, 48); font-family: BlinkMacSystemFont, -apple-system, &amp;quot;Segoe UI&amp;quot;, Roboto, Helvetica, Arial, sans-serif; font-size: 16px; background-color: rgb(255, 255, 255);&quot;&gt;There is a widespread practice to use constants as aliases for difficult-to-remember values that are known before execution.&lt;/p&gt;&lt;p style=&quot;margin: 0px 0px 12px; padding: 0px; color: rgb(49, 49, 48); font-family: BlinkMacSystemFont, -apple-system, &amp;quot;Segoe UI&amp;quot;, Roboto, Helvetica, Arial, sans-serif; font-size: 16px; background-color: rgb(255, 255, 255);&quot;&gt;&lt;code style=&quot;font-family: Consolas, &amp;quot;Lucida Console&amp;quot;, Menlo, Monaco, monospace; padding: 0px; background-image: inherit; background-position: inherit; background-size: inherit; background-repeat: inherit; background-attachment: inherit; background-origin: inherit; background-clip: inherit; background-color: rgb(247, 244, 243); border-radius: 2px; color: var(--prismTokenComment); white-space: pre;&quot; class=&quot;token comment&quot;&gt;&lt;/code&gt;&lt;/p&gt;&lt;p style=&quot;margin: 0px 0px 12px; padding: 0px; color: rgb(49, 49, 48); font-family: BlinkMacSystemFont, -apple-system, &amp;quot;Segoe UI&amp;quot;, Roboto, Helvetica, Arial, sans-serif; font-size: 16px; background-color: rgb(255, 255, 255);&quot;&gt;Such constants are named using capital letters and underscores.&lt;br&gt;For instance, let’s make constants for colors in so-called “web” (hexadecimal) format:&lt;br&gt;&lt;code style=&quot;font-family: Consolas, &amp;quot;Lucida Console&amp;quot;, Menlo, Monaco, monospace; padding: 0px; background-image: inherit; background-position: inherit; background-size: inherit; background-repeat: inherit; background-attachment: inherit; background-origin: inherit; background-clip: inherit; background-color: rgb(247, 244, 243); border-radius: 2px; color: var(--prismTokenKeyword); white-space: pre;&quot; class=&quot;token keyword&quot;&gt;const&lt;/code&gt;&lt;span style=&quot;font-family: Consolas, &amp;quot;Lucida Console&amp;quot;, Menlo, Monaco, monospace; white-space: pre; background-color: rgb(247, 244, 243);&quot;&gt; &lt;/span&gt;&lt;code style=&quot;font-family: Consolas, &amp;quot;Lucida Console&amp;quot;, Menlo, Monaco, monospace; padding: 0px; background-image: inherit; background-position: inherit; background-size: inherit; background-repeat: inherit; background-attachment: inherit; background-origin: inherit; background-clip: inherit; background-color: rgb(247, 244, 243); border-radius: 2px; white-space: pre;&quot; class=&quot;token constant&quot;&gt;COLOR_ORANGE&lt;/code&gt;&lt;span style=&quot;font-family: Consolas, &amp;quot;Lucida Console&amp;quot;, Menlo, Monaco, monospace; white-space: pre; background-color: rgb(247, 244, 243);&quot;&gt; &lt;/span&gt;&lt;code style=&quot;font-family: Consolas, &amp;quot;Lucida Console&amp;quot;, Menlo, Monaco, monospace; padding: 0px; background-image: inherit; background-position: inherit; background-size: inherit; background-repeat: inherit; background-attachment: inherit; background-origin: inherit; background-clip: inherit; background-color: rgb(247, 244, 243); border-radius: 2px; color: var(--prismTokenOperator); white-space: pre;&quot; class=&quot;token operator&quot;&gt;=&lt;/code&gt;&lt;span style=&quot;font-family: Consolas, &amp;quot;Lucida Console&amp;quot;, Menlo, Monaco, monospace; white-space: pre; background-color: rgb(247, 244, 243);&quot;&gt; &lt;/span&gt;&lt;code style=&quot;font-family: Consolas, &amp;quot;Lucida Console&amp;quot;, Menlo, Monaco, monospace; padding: 0px; background-image: inherit; background-position: inherit; background-size: inherit; background-repeat: inherit; background-attachment: inherit; background-origin: inherit; background-clip: inherit; background-color: rgb(247, 244, 243); border-radius: 2px; color: var(--prismTokenSymbolsAlt); white-space: pre;&quot; class=&quot;token string&quot;&gt;&quot;#FF7F00&quot;&lt;/code&gt;&lt;code style=&quot;font-family: Consolas, &amp;quot;Lucida Console&amp;quot;, Menlo, Monaco, monospace; padding: 0px; background-image: inherit; background-position: inherit; background-size: inherit; background-repeat: inherit; background-attachment: inherit; background-origin: inherit; background-clip: inherit; background-color: rgb(247, 244, 243); border-radius: 2px; color: var(--prismTokenPunctuation); white-space: pre;&quot; class=&quot;token punctuation&quot;&gt;;&lt;br/&gt;&lt;/code&gt;&lt;code style=&quot;font-family: Consolas, &amp;quot;Lucida Console&amp;quot;, Menlo, Monaco, monospace; padding: 0px; background-image: inherit; background-position: inherit; background-size: inherit; background-repeat: inherit; background-attachment: inherit; background-origin: inherit; background-clip: inherit; background-color: rgb(247, 244, 243); border-radius: 2px; color: var(--prismTokenKeyword); white-space: pre;&quot; class=&quot;token keyword&quot;&gt;let&lt;/code&gt;&lt;span style=&quot;font-family: Consolas, &amp;quot;Lucida Console&amp;quot;, Menlo, Monaco, monospace; white-space: pre; background-color: rgb(247, 244, 243);&quot;&gt; color &lt;/span&gt;&lt;code style=&quot;font-family: Consolas, &amp;quot;Lucida Console&amp;quot;, Menlo, Monaco, monospace; padding: 0px; background-image: inherit; background-position: inherit; background-size: inherit; background-repeat: inherit; background-attachment: inherit; background-origin: inherit; background-clip: inherit; background-color: rgb(247, 244, 243); border-radius: 2px; color: var(--prismTokenOperator); white-space: pre;&quot; class=&quot;token operator&quot;&gt;=&lt;/code&gt;&lt;span style=&quot;font-family: Consolas, &amp;quot;Lucida Console&amp;quot;, Menlo, Monaco, monospace; white-space: pre; background-color: rgb(247, 244, 243);&quot;&gt; &lt;/span&gt;&lt;code style=&quot;font-family: Consolas, &amp;quot;Lucida Console&amp;quot;, Menlo, Monaco, monospace; padding: 0px; background-image: inherit; background-position: inherit; background-size: inherit; background-repeat: inherit; background-attachment: inherit; background-origin: inherit; background-clip: inherit; background-color: rgb(247, 244, 243); border-radius: 2px; white-space: pre;&quot; class=&quot;token constant&quot;&gt;COLOR_ORANGE&lt;/code&gt;&lt;code style=&quot;font-family: Consolas, &amp;quot;Lucida Console&amp;quot;, Menlo, Monaco, monospace; padding: 0px; background-image: inherit; background-position: inherit; background-size: inherit; background-repeat: inherit; background-attachment: inherit; background-origin: inherit; background-clip: inherit; background-color: rgb(247, 244, 243); border-radius: 2px; color: var(--prismTokenPunctuation); white-space: pre;&quot; class=&quot;token punctuation&quot;&gt;;&lt;/code&gt;&lt;span style=&quot;font-family: Consolas, &amp;quot;Lucida Console&amp;quot;, Menlo, Monaco, monospace; white-space: pre; background-color: rgb(247, 244, 243);&quot;&gt;&lt;br/&gt;&lt;/span&gt;&lt;code style=&quot;font-family: Consolas, &amp;quot;Lucida Console&amp;quot;, Menlo, Monaco, monospace; padding: 0px; background-image: inherit; background-position: inherit; background-size: inherit; background-repeat: inherit; background-attachment: inherit; background-origin: inherit; background-clip: inherit; background-color: rgb(247, 244, 243); border-radius: 2px; color: var(--prismTokenFunctionAndClassname); white-space: pre;&quot; class=&quot;token function&quot;&gt;alert&lt;/code&gt;&lt;code style=&quot;font-family: Consolas, &amp;quot;Lucida Console&amp;quot;, Menlo, Monaco, monospace; padding: 0px; background-image: inherit; background-position: inherit; background-size: inherit; background-repeat: inherit; background-attachment: inherit; background-origin: inherit; background-clip: inherit; background-color: rgb(247, 244, 243); border-radius: 2px; color: var(--prismTokenPunctuation); white-space: pre;&quot; class=&quot;token punctuation&quot;&gt;(&lt;/code&gt;&lt;span style=&quot;font-family: Consolas, &amp;quot;Lucida Console&amp;quot;, Menlo, Monaco, monospace; white-space: pre; background-color: rgb(247, 244, 243);&quot;&gt;color&lt;/span&gt;&lt;code style=&quot;font-family: Consolas, &amp;quot;Lucida Console&amp;quot;, Menlo, Monaco, monospace; padding: 0px; background-image: inherit; background-position: inherit; background-size: inherit; background-repeat: inherit; background-attachment: inherit; background-origin: inherit; background-clip: inherit; background-color: rgb(247, 244, 243); border-radius: 2px; color: var(--prismTokenPunctuation); white-space: pre;&quot; class=&quot;token punctuation&quot;&gt;)&lt;/code&gt;&lt;code style=&quot;font-family: Consolas, &amp;quot;Lucida Console&amp;quot;, Menlo, Monaco, monospace; padding: 0px; background-image: inherit; background-position: inherit; background-size: inherit; background-repeat: inherit; background-attachment: inherit; background-origin: inherit; background-clip: inherit; background-color: rgb(247, 244, 243); border-radius: 2px; color: var(--prismTokenPunctuation); white-space: pre;&quot; class=&quot;token punctuation&quot;&gt;;&lt;/code&gt;&lt;span style=&quot;font-family: Consolas, &amp;quot;Lucida Console&amp;quot;, Menlo, Monaco, monospace; white-space: pre; background-color: rgb(247, 244, 243);&quot;&gt; &lt;/span&gt;&lt;code style=&quot;font-family: Consolas, &amp;quot;Lucida Console&amp;quot;, Menlo, Monaco, monospace; padding: 0px; background-image: inherit; background-position: inherit; background-size: inherit; background-repeat: inherit; background-attachment: inherit; background-origin: inherit; background-clip: inherit; background-color: rgb(247, 244, 243); border-radius: 2px; color: var(--prismTokenComment); white-space: pre;&quot; class=&quot;token comment&quot;&gt;// #FF7F00&lt;br/&gt;&lt;/code&gt;Being a “constant” just means that a variable’s value never changes. But some constants are known before execution (like a hexadecimal value for red) and some constants are&amp;nbsp;&lt;em&gt;calculated&lt;/em&gt;&amp;nbsp;in run-time, during the execution, but do not change after their initial assignment.&lt;br&gt;&lt;code style=&quot;font-family: Consolas, &amp;quot;Lucida Console&amp;quot;, Menlo, Monaco, monospace; padding: 0px; background-image: inherit; background-position: inherit; background-size: inherit; background-repeat: inherit; background-attachment: inherit; background-origin: inherit; background-clip: inherit; background-color: rgb(247, 244, 243); border-radius: 2px; color: var(--prismTokenKeyword); white-space: pre;&quot; class=&quot;token keyword&quot;&gt;const&lt;/code&gt;&lt;span style=&quot;font-family: Consolas, &amp;quot;Lucida Console&amp;quot;, Menlo, Monaco, monospace; white-space: pre; background-color: rgb(247, 244, 243);&quot;&gt; pageLoadTime &lt;/span&gt;&lt;code style=&quot;font-family: Consolas, &amp;quot;Lucida Console&amp;quot;, Menlo, Monaco, monospace; padding: 0px; background-image: inherit; background-position: inherit; background-size: inherit; background-repeat: inherit; background-attachment: inherit; background-origin: inherit; background-clip: inherit; background-color: rgb(247, 244, 243); border-radius: 2px; color: var(--prismTokenOperator); white-space: pre;&quot; class=&quot;token operator&quot;&gt;=&lt;/code&gt;&lt;span style=&quot;font-family: Consolas, &amp;quot;Lucida Console&amp;quot;, Menlo, Monaco, monospace; white-space: pre; background-color: rgb(247, 244, 243);&quot;&gt; &lt;/span&gt;&lt;code style=&quot;font-family: Consolas, &amp;quot;Lucida Console&amp;quot;, Menlo, Monaco, monospace; padding: 0px; background-image: inherit; background-position: inherit; background-size: inherit; background-repeat: inherit; background-attachment: inherit; background-origin: inherit; background-clip: inherit; background-color: rgb(247, 244, 243); border-radius: 2px; color: var(--prismTokenComment); white-space: pre;&quot; class=&quot;token comment&quot;&gt;/* time taken by a webpage to load */&lt;/code&gt;&lt;code style=&quot;font-family: Consolas, &amp;quot;Lucida Console&amp;quot;, Menlo, Monaco, monospace; padding: 0px; background-image: inherit; background-position: inherit; background-size: inherit; background-repeat: inherit; background-attachment: inherit; background-origin: inherit; background-clip: inherit; background-color: rgb(247, 244, 243); border-radius: 2px; color: var(--prismTokenPunctuation); white-space: pre;&quot; class=&quot;token punctuation&quot;&gt;;&lt;br/&gt;&lt;/code&gt;&lt;/p&gt;&lt;p style=&quot;margin: 0px 0px 12px; padding: 0px; color: rgb(49, 49, 48); font-family: BlinkMacSystemFont, -apple-system, &amp;quot;Segoe UI&amp;quot;, Roboto, Helvetica, Arial, sans-serif; font-size: 16px; background-color: rgb(255, 255, 255);&quot;&gt;The value of&amp;nbsp;&lt;code style=&quot;font-family: Consolas, &amp;quot;Lucida Console&amp;quot;, Menlo, Monaco, monospace; padding: 2px 4px; background: var(--prismBlockBg); border-radius: 2px; color: var(--foregroundAlt);&quot;&gt;pageLoadTime&lt;/code&gt;&amp;nbsp;is not known before the page load, so it’s named normally. But it’s still a constant because it doesn’t change after the assignment.&lt;/p&gt;&lt;p style=&quot;margin: 0px 0px 12px; padding: 0px; color: rgb(49, 49, 48); font-family: BlinkMacSystemFont, -apple-system, &amp;quot;Segoe UI&amp;quot;, Roboto, Helvetica, Arial, sans-serif; font-size: 16px; background-color: rgb(255, 255, 255);&quot;&gt;In other words, capital-named constants are only used as aliases for “hard-coded” values.&lt;br&gt;&lt;br&gt;&lt;br&gt;&lt;/p&gt;&lt;div style=&quot;margin: 22px 0px; color: rgb(49, 49, 48); font-family: BlinkMacSystemFont, -apple-system, &amp;quot;Segoe UI&amp;quot;, Roboto, Helvetica, Arial, sans-serif; font-size: 16px; background-color: rgb(255, 255, 255);&quot; data-prism-highlighted=&quot;1&quot; class=&quot;code-example&quot; data-trusted=&quot;1&quot; id=&quot;013ibs2hha&quot;&gt;&lt;div style=&quot;width: 800px; height: 98px; position: relative; margin: 1.5em 0px 0px; overflow: auto;&quot; class=&quot;codebox code-example__codebox&quot;&gt;&lt;div style=&quot;position: absolute; top: 0px; right: 0px; z-index: 9; opacity: 0.8; display: table-row;&quot; class=&quot;toolbar codebox__toolbar&quot;&gt;&lt;div style=&quot;display: table-cell; padding-left: 1px;&quot; class=&quot;toolbar__tool&quot;&gt;&lt;a style=&quot;text-decoration-line: none; padding: 0px; background: var(--foregroundSubtle); display: inline-block; vertical-align: bottom; width: 30px; height: 30px; text-align: center; line-height: 30px;&quot; class=&quot;toolbar__button toolbar__button_run&quot; data-action=&quot;run&quot; title=&quot;run&quot; href=&quot;https://javascript.info/variables#&quot;&gt;&lt;/a&gt;&lt;/div&gt;&lt;div style=&quot;display: table-cell; padding-left: 1px;&quot; class=&quot;toolbar__tool&quot;&gt;&lt;a style=&quot;text-decoration-line: none; padding: 0px; background: var(--foregroundSubtle); display: inline-block; vertical-align: bottom; width: 30px; height: 30px; text-align: center; line-height: 30px;&quot; class=&quot;toolbar__button toolbar__button_edit&quot; data-action=&quot;edit&quot; target=&quot;_blank&quot; title=&quot;open in sandbox&quot; href=&quot;https://javascript.info/variables#&quot;&gt;&lt;/a&gt;&lt;/div&gt;&lt;/div&gt;&lt;/div&gt;&lt;/div&gt;&lt;div style=&quot;margin: 12px 24px 24px; color: rgb(49, 49, 48); font-family: BlinkMacSystemFont, -apple-system, &amp;quot;Segoe UI&amp;quot;, Roboto, Helvetica, Arial, sans-serif; font-size: 16px; background-color: rgb(255, 255, 255);&quot; class=&quot;important__content&quot;&gt;&lt;p style=&quot;margin: 0px 0px 12px; padding: 0px; break-before: avoid;&quot;&gt;&lt;br&gt;&lt;/p&gt;&lt;/div&gt;" style="text;html=1;whiteSpace=wrap;overflow=hidden;rounded=0;" vertex="1" parent="1">
          <mxGeometry x="40" y="41" width="720" height="800" as="geometry" />
        </mxCell>
      </root>
    </mxGraphModel>
  </diagram>
</mxfile>
